<?xml version="1.0" encoding="utf-8"?>
<!-- Generator: Adobe Illustrator 27.2.0, SVG Export Plug-In . SVG Version: 6.00 Build 0)  -->
<svg version="1.1" id="Layer_1" xmlns="http://www.w3.org/2000/svg" xmlns:xlink="http://www.w3.org/1999/xlink" x="0px" y="0px"
	 viewBox="0 0 32 32" style="enable-background:new 0 0 32 32;" xml:space="preserve">
<style type="text/css">
	.st0{fill:#FFFFFF;}
</style>
<path class="st0" d="M31,16c0-8.3-6.7-15-15-15S1,7.7,1,16s6.7,15,15,15S31,24.3,31,16z M17.2,28.7v-9.2h3.5c0.6,0,1.2-0.6,1.2-1.2
	c0-0.6-0.6-1.2-1.2-1.2h-3.5v-3.5c0-1.3,1-2.3,2.3-2.3h2.3c0.6,0,1.2-0.5,1.2-1.2s-0.6-1.2-1.2-1.2h-2.3c-2.5,0-4.6,2.1-4.6,4.6v3.5
	h-3.5c-0.7,0-1.2,0.6-1.2,1.2c0,0.6,0.5,1.2,1.2,1.2h3.5v9.2C7.8,28,2.7,21.9,3.4,14.8C4,7.9,10.2,2.7,17.2,3.4s12.1,6.8,11.5,13.7
	C28.1,23.3,23.3,28.1,17.2,28.7z"/>
</svg>
