<?xml version="1.0" encoding="UTF-8"?><svg id="Layer_1" xmlns="http://www.w3.org/2000/svg" width="32" height="32" viewBox="0 0 32 32"><defs><style>.cls-1{fill:#1877f2;}</style></defs><path class="cls-1" d="m31,16c0-8.3-6.7-15-15-15S1,7.7,1,16s6.7,15,15,15,15-6.7,15-15Zm-13.8,12.7v-9.2h3.5c.6,0,1.2-.6,1.2-1.2s-.6-1.2-1.2-1.2h-3.5v-3.5c0-1.3,1-2.3,2.3-2.3h2.3c.6,0,1.2-.5,1.2-1.2s-.6-1.2-1.2-1.2h-2.3c-2.5,0-4.6,2.1-4.6,4.6v3.5h-3.5c-.7,0-1.2.6-1.2,1.2s.5,1.2,1.2,1.2h3.5v9.2c-7.1-.6-12.2-6.7-11.5-13.8.6-6.9,6.8-12.1,13.8-11.4,7,.7,12.1,6.8,11.5,13.7-.6,6.2-5.4,11-11.5,11.6Z"/></svg>