<?xml version="1.0" encoding="UTF-8"?><svg id="Layer_1" xmlns="http://www.w3.org/2000/svg" width="32" height="32" viewBox="0 0 32 32"><defs><style>.cls-1{fill:#6e5494;}</style></defs><path class="cls-1" d="m16,1C7.7,1,1,7.8,1,16c0,6.6,4.3,12.3,10.3,14.3.8.1,1-.3,1-.8v-2.5c-4.2.9-5-2-5-2-.7-1.7-1.7-2.2-1.7-2.2-1.4-.9.1-.9.1-.9,1.5.1,2.3,1.5,2.3,1.5,1.3,2.3,3.5,1.6,4.4,1.2.1-1,.5-1.6.9-2-3.3-.4-6.8-1.7-6.8-7.4,0-1.7.6-3,1.5-4.1-.1-.4-.7-1.9.1-4,0,0,1.3-.4,4.1,1.5,1.2-.3,2.5-.5,3.7-.5s2.6.2,3.7.5c2.9-1.9,4.1-1.5,4.1-1.5.8,2,.3,3.6.1,4,1,1.1,1.5,2.4,1.5,4.1,0,5.7-3.5,7-6.9,7.4.5.5,1,1.4,1,2.8v4.1c0,.4.2.9,1,.8,6-2,10.3-7.6,10.3-14.3.3-8.2-6.4-15-14.7-15h0Z"/></svg>