<?xml version="1.0" encoding="UTF-8"?><svg id="Layer_1" xmlns="http://www.w3.org/2000/svg" width="32" height="32" viewBox="0 0 32 32"><defs><style>.cls-1{fill:#e1306c;}</style></defs><path class="cls-1" d="m16,3.7c4,0,4.5,0,6.1.1,1.5.1,2.3.3,2.8.5.7.3,1.2.6,1.7,1.1s.8,1,1.1,1.7c.2.5.4,1.3.5,2.8.1,1.6.1,2.1.1,6.1s0,4.5-.1,6.1c-.1,1.5-.3,2.3-.5,2.8-.3.7-.6,1.2-1.1,1.7s-1,.8-1.7,1.1c-.5.2-1.3.4-2.8.5-1.6.1-2.1.1-6.1.1s-4.5,0-6.1-.1c-1.5-.1-2.3-.3-2.8-.5-.7-.3-1.2-.6-1.7-1.1s-.8-1-1.1-1.7c-.2-.5-.4-1.3-.5-2.8-.1-1.6-.1-2.1-.1-6.1s0-4.5.1-6.1c.1-1.5.3-2.3.5-2.8.3-.6.6-1.1,1.1-1.7.5-.5,1-.8,1.7-1.1.5-.2,1.3-.4,2.8-.5,1.6-.1,2.1-.1,6.1-.1m0-2.7c-4.1,0-4.6,0-6.2.1-1.6.1-2.7.3-3.6.7-1,.4-1.8.9-2.7,1.7-.8.9-1.3,1.7-1.7,2.7-.4,1-.6,2-.7,3.6-.1,1.6-.1,2.1-.1,6.2s0,4.6.1,6.2.3,2.7.7,3.6c.4,1,.9,1.8,1.7,2.7.8.8,1.7,1.3,2.7,1.7,1,.4,2,.6,3.6.7,1.6.1,2.1.1,6.2.1s4.6,0,6.2-.1,2.7-.3,3.6-.7c1-.4,1.8-.9,2.7-1.7.8-.8,1.3-1.7,1.7-2.7.4-1,.6-2,.7-3.6.1-1.6.1-2.1.1-6.2s0-4.6-.1-6.2c-.1-1.6-.3-2.7-.7-3.6-.4-1-.9-1.8-1.7-2.7s-1.7-1.3-2.7-1.7c-1-.4-2-.6-3.6-.7-1.6-.1-2.1-.1-6.2-.1Zm0,7.3c-4.3,0-7.7,3.4-7.7,7.7s3.4,7.7,7.7,7.7,7.7-3.4,7.7-7.7-3.4-7.7-7.7-7.7Zm0,12.7c-2.8,0-5-2.2-5-5s2.2-5,5-5,5,2.2,5,5-2.2,5-5,5Zm9.8-13c0,1-.8,1.8-1.8,1.8s-1.8-.8-1.8-1.8.8-1.8,1.8-1.8,1.8.8,1.8,1.8Z"/></svg>