<?xml version="1.0" encoding="utf-8"?>
<!-- Generator: Adobe Illustrator 27.2.0, SVG Export Plug-In . SVG Version: 6.00 Build 0)  -->
<svg version="1.1" id="Layer_1" xmlns="http://www.w3.org/2000/svg" xmlns:xlink="http://www.w3.org/1999/xlink" x="0px" y="0px"
	 viewBox="0 0 32 32" style="enable-background:new 0 0 32 32;" xml:space="preserve">
<style type="text/css">
	.st0{fill:#FFFFFF;}
</style>
<path class="st0" d="M16,3.7c4,0,4.5,0,6.1,0.1c1.5,0.1,2.3,0.3,2.8,0.5c0.7,0.3,1.2,0.6,1.7,1.1c0.5,0.5,0.8,1,1.1,1.7
	c0.2,0.5,0.4,1.3,0.5,2.8c0.1,1.6,0.1,2.1,0.1,6.1s0,4.5-0.1,6.1c-0.1,1.5-0.3,2.3-0.5,2.8c-0.3,0.7-0.6,1.2-1.1,1.7
	c-0.5,0.5-1,0.8-1.7,1.1c-0.5,0.2-1.3,0.4-2.8,0.5c-1.6,0.1-2.1,0.1-6.1,0.1s-4.5,0-6.1-0.1c-1.5-0.1-2.3-0.3-2.8-0.5
	c-0.7-0.3-1.2-0.6-1.7-1.1c-0.5-0.5-0.8-1-1.1-1.7c-0.2-0.5-0.4-1.3-0.5-2.8C3.7,20.5,3.7,20,3.7,16s0-4.5,0.1-6.1
	c0.1-1.5,0.3-2.3,0.5-2.8C4.6,6.5,4.9,6,5.4,5.4c0.5-0.5,1-0.8,1.7-1.1c0.5-0.2,1.3-0.4,2.8-0.5C11.5,3.7,12,3.7,16,3.7 M16,1
	c-4.1,0-4.6,0-6.2,0.1C8.2,1.2,7.1,1.4,6.2,1.8c-1,0.4-1.8,0.9-2.7,1.7C2.7,4.4,2.2,5.2,1.8,6.2c-0.4,1-0.6,2-0.7,3.6
	C1,11.4,1,11.9,1,16s0,4.6,0.1,6.2c0.1,1.6,0.3,2.7,0.7,3.6c0.4,1,0.9,1.8,1.7,2.7c0.8,0.8,1.7,1.3,2.7,1.7c1,0.4,2,0.6,3.6,0.7
	C11.4,31,11.9,31,16,31s4.6,0,6.2-0.1c1.6-0.1,2.7-0.3,3.6-0.7c1-0.4,1.8-0.9,2.7-1.7c0.8-0.8,1.3-1.7,1.7-2.7c0.4-1,0.6-2,0.7-3.6
	C31,20.6,31,20.1,31,16s0-4.6-0.1-6.2c-0.1-1.6-0.3-2.7-0.7-3.6c-0.4-1-0.9-1.8-1.7-2.7s-1.7-1.3-2.7-1.7c-1-0.4-2-0.6-3.6-0.7
	C20.6,1,20.1,1,16,1z M16,8.3c-4.3,0-7.7,3.4-7.7,7.7s3.4,7.7,7.7,7.7s7.7-3.4,7.7-7.7S20.3,8.3,16,8.3z M16,21c-2.8,0-5-2.2-5-5
	c0-2.8,2.2-5,5-5s5,2.2,5,5C21,18.8,18.8,21,16,21z M25.8,8c0,1-0.8,1.8-1.8,1.8c-1,0-1.8-0.8-1.8-1.8S23,6.2,24,6.2
	C25,6.2,25.8,7,25.8,8z"/>
</svg>
